<svg width="274" height="173" viewBox="0 0 274 173" fill="none" xmlns="http://www.w3.org/2000/svg">
<mask id="mask0_37_64" style="mask-type:alpha" maskUnits="userSpaceOnUse" x="32" y="4" width="234" height="143">
<path d="M32.1289 4.68419H265.132V146.876H32.1289V4.68419Z" fill="white"/>
</mask>
<g mask="url(#mask0_37_64)">
<mask id="mask1_37_64" style="mask-type:alpha" maskUnits="userSpaceOnUse" x="29" y="-40" width="274" height="253">
<path d="M108.34 -39.9482L302.455 82.3527L223.319 212.3L29.1982 89.9992L108.34 -39.9482Z" fill="white"/>
</mask>
<g mask="url(#mask1_37_64)">
<mask id="mask2_37_64" style="mask-type:alpha" maskUnits="userSpaceOnUse" x="29" y="-40" width="274" height="253">
<path d="M108.34 -39.9482L302.455 82.3527L223.319 212.3L29.1982 89.9992L108.34 -39.9482Z" fill="white"/>
</mask>
<g mask="url(#mask2_37_64)">
<mask id="mask3_37_64" style="mask-type:alpha" maskUnits="userSpaceOnUse" x="29" y="-40" width="274" height="253">
<path d="M108.34 -39.9482L302.455 82.3527L223.319 212.3L29.1982 89.9992L108.34 -39.9482Z" fill="white"/>
</mask>
<g mask="url(#mask3_37_64)">
<path d="M172.453 8.79442C126.459 -1.56139 76.8184 16.8482 48.8034 59.0306C41.7708 69.6209 36.6192 80.9456 33.2577 92.5851L33.646 92.6715C36.953 81.2048 42.0681 70.0529 49.0643 59.6292C50.5873 57.3581 52.1771 55.1672 53.8275 53.038C60.8055 59.191 68.19 64.9737 75.975 70.3615C71.1814 79.8903 67.4194 89.8388 64.6646 99.9416L64.9437 100.009C67.6864 89.9499 71.4605 80.0569 76.2966 70.5836C82.6799 74.9963 89.3363 79.1374 96.2475 82.9822C100.871 85.5496 105.537 87.938 110.252 90.172C108.183 96.4917 106.326 102.898 104.706 109.328L104.864 109.365C106.484 102.947 108.335 96.5534 110.416 90.2461C125.233 97.2446 140.439 102.577 155.827 106.311L150.7 129.991L156.209 106.397C171.233 110.013 186.421 112.112 201.572 112.729C200.747 118.857 199.703 125.066 198.435 131.293L198.599 131.33C199.867 125.09 200.911 118.876 201.754 112.735C213.957 113.229 226.135 112.772 238.179 111.39C238.216 120.826 237.372 130.441 235.613 140.007L235.916 140.075C237.676 130.466 238.555 120.814 238.562 111.34C246.723 110.39 254.829 109.02 262.839 107.236C264.969 120.122 264.999 133.354 262.808 146.376L263.203 146.469C270.794 101.33 252.615 53.7971 212.943 26.5375C202.962 19.681 192.319 14.5833 181.366 11.1828C180.438 10.868 179.516 10.578 178.581 10.3064C177.878 10.0719 177.162 9.8806 176.439 9.72632C176.379 9.71398 176.324 9.7078 176.263 9.69546C175.76 9.57203 175.256 9.44243 174.753 9.33134C174.649 9.30665 174.546 9.29431 174.449 9.26962C173.782 9.10916 173.12 8.94253 172.453 8.79442ZM175.408 11.5284C175.693 11.6025 175.984 11.6765 176.27 11.7506L173.187 26.0315C166.009 24.2232 159.055 21.9459 152.35 19.2305C160.342 12.9417 168.236 10.2386 175.408 11.5284ZM178.169 12.269C178.339 12.3184 178.509 12.3739 178.685 12.4233C183.387 14.1513 187.707 17.7431 191.451 23.3592C192.774 25.3526 193.988 27.5497 195.098 29.9257C188.654 29.2407 182.18 28.1606 175.717 26.6424C175.426 26.5807 175.147 26.5005 174.862 26.4326L178.169 12.269ZM166.798 10.0287C161.749 11.3001 156.489 14.2439 151.197 18.7552C146.962 17.0025 142.818 15.0709 138.789 12.9787C148.085 10.1028 157.538 9.08448 166.798 10.0287ZM186.767 15.3609C192.75 18.027 198.508 21.662 203.933 26.2845C205.607 27.7101 207.215 29.216 208.769 30.7774C204.643 30.7033 200.504 30.4688 196.354 30.0615C195.043 26.951 193.563 24.1245 191.918 21.6127C190.304 19.1502 188.581 17.0704 186.767 15.3609ZM154.256 8.10938C148.437 8.65864 142.605 9.94849 136.847 11.9604C134.948 10.9483 133.085 9.89295 131.24 8.80059C138.843 7.82549 146.556 7.5848 154.256 8.10938ZM199.54 20.6684C203.92 22.9025 208.216 25.4267 212.391 28.2656C213.58 29.074 214.751 29.9072 215.898 30.7527C214.242 30.7959 212.573 30.8206 210.911 30.8082C208.866 28.5988 206.706 26.5005 204.442 24.5503C202.84 23.1617 201.202 21.878 199.54 20.6684ZM128.844 9.13385C130.846 10.3558 132.885 11.5346 134.954 12.664C128.243 15.2005 121.647 18.712 115.3 23.1494C111.696 20.6869 108.195 18.0949 104.809 15.3918C112.582 12.4603 120.64 10.362 128.844 9.13385ZM217.876 32.2338C225.734 38.2449 232.639 45.0706 238.568 52.5196C234.514 53.0751 230.425 53.4947 226.317 53.7663C222.512 45.8605 217.834 38.6399 212.3 32.3511C214.163 32.3449 216.026 32.3079 217.876 32.2338ZM136.744 13.6452C136.744 13.6452 136.75 13.6514 136.75 13.6452C141.016 15.9163 145.409 17.9961 149.911 19.8846C145.366 23.9825 140.803 29.216 136.356 35.5171C129.365 32.0302 122.679 28.1236 116.314 23.8344C122.915 19.4279 129.772 16.0151 136.744 13.6452ZM210.286 32.3449C216.171 38.6028 221.159 45.8482 225.206 53.8341C217.688 54.2847 210.11 54.2291 202.507 53.686C201.317 45.4532 199.485 38.0227 196.997 31.6661C201.445 32.0796 205.874 32.3079 210.286 32.3449ZM151.003 20.3352C158.012 23.2111 165.305 25.6241 172.853 27.5188L168.46 47.8293C162.951 46.3049 157.453 44.509 151.998 42.4107C146.823 40.4234 141.792 38.2079 136.908 35.7886C141.531 29.4567 146.283 24.2849 151.003 20.3352ZM195.832 31.5365C198.557 37.8376 200.577 45.3113 201.906 53.649C191.196 52.8467 180.456 51.0446 169.777 48.1872L174.504 27.92C174.789 27.9878 175.068 28.0619 175.347 28.1298C182.186 29.7282 189.024 30.8514 195.832 31.5365ZM103.917 15.7312C107.388 18.4714 110.974 21.0881 114.669 23.5875C107.224 28.8827 100.137 35.4739 93.6262 43.2623C87.9043 39.2077 82.425 34.8814 77.1885 30.3022C85.4893 24.2417 94.4878 19.3724 103.917 15.7312ZM239.041 53.1121C244.708 60.3204 249.453 68.1027 253.258 76.2676C247.269 77.5575 241.207 78.5758 235.097 79.3163C233.107 70.4726 230.261 62.067 226.578 54.3032C230.752 54.0502 234.909 53.6552 239.041 53.1121ZM115.677 24.2602C122.133 28.5618 128.923 32.4869 136.022 35.9861C131.216 42.8489 126.544 50.9397 122.145 60.1723C112.303 55.3709 102.971 49.8412 94.1783 43.6573C100.823 35.9121 108.068 29.4258 115.677 24.2602ZM225.479 54.3711C229.351 62.1102 232.342 70.5281 234.454 79.3966C224.466 80.5753 214.351 81.0259 204.163 80.6803C204.248 71.2502 203.726 62.3262 202.579 54.1736C210.249 54.7414 217.895 54.7907 225.479 54.3711ZM136.58 36.2515C141.331 38.5782 146.216 40.7197 151.234 42.6452C156.913 44.8299 162.629 46.6937 168.375 48.2674L162.617 74.879C157.866 73.7003 153.127 72.3425 148.394 70.7997C139.402 67.862 130.743 64.3442 122.442 60.3142C126.92 51.0817 131.683 43.0217 136.58 36.2515ZM201.991 54.1304C203.259 62.2583 203.872 71.2008 203.848 80.6617C190.462 80.1927 176.955 78.3659 163.503 75.095L169.68 48.6192C180.414 51.4828 191.221 53.3034 201.991 54.1304ZM76.2905 30.981C81.6241 35.5726 87.2004 39.9235 93.0255 43.9844C87.6676 50.4892 82.7042 57.8209 78.2807 65.9365C77.6072 67.1831 76.9519 68.4298 76.3148 69.6826C68.6087 64.2825 61.303 58.469 54.404 52.2913C60.8662 44.0955 68.2507 36.9736 76.2905 30.981ZM253.591 76.9773C257.839 86.2531 260.861 96.0165 262.62 106.008C254.684 107.847 246.65 109.267 238.555 110.273C238.495 99.8552 237.39 89.6475 235.261 79.9644C241.426 79.2423 247.548 78.2425 253.591 76.9773ZM93.5776 44.3609C102.461 50.5139 111.902 56.025 121.847 60.8018C119.766 65.1959 117.752 69.8369 115.816 74.7309C113.88 79.6064 112.09 84.5745 110.434 89.5919C106.017 87.4874 101.63 85.2225 97.2851 82.8094C90.119 78.8288 83.2442 74.5149 76.6485 69.911C77.231 68.7754 77.8256 67.6337 78.4446 66.5104C82.9711 58.29 88.062 50.8903 93.5776 44.3609ZM234.605 80.0446C236.856 89.7153 238.058 99.9045 238.173 110.316C226.159 111.797 214.023 112.346 201.851 111.933C203.271 101.342 204.042 91.0052 204.157 81.1987C214.4 81.5689 224.569 81.1863 234.605 80.0446ZM122.127 60.9376C130.264 64.8318 138.728 68.2385 147.52 71.1082C152.502 72.7313 157.502 74.1446 162.508 75.3727L155.942 105.712C140.579 102.021 125.391 96.6953 110.598 89.666C112.212 84.8028 113.959 80.0014 115.846 75.274C117.861 70.2257 119.96 65.4428 122.133 60.9376H122.127ZM203.842 81.1863C203.799 90.9805 203.065 101.324 201.675 111.927C186.53 111.396 171.355 109.384 156.337 105.804L163.388 75.5949C176.876 78.8473 190.42 80.6803 203.848 81.1863H203.842Z" fill="#CCCCCC"/>
</g>
</g>
</g>
</g>
<mask id="mask4_37_64" style="mask-type:alpha" maskUnits="userSpaceOnUse" x="0" y="121" width="123" height="52">
<path d="M0 121.597H122.327V173H0V121.597Z" fill="white"/>
</mask>
<g mask="url(#mask4_37_64)">
<path d="M122.436 144.056C122.436 135.613 114.973 128.016 101.423 122.665C101.174 122.566 100.913 122.523 100.646 122.529C100.379 122.535 100.119 122.597 99.8758 122.708C99.627 122.819 99.4147 122.974 99.2266 123.171C99.0445 123.369 98.8989 123.597 98.8018 123.856C98.7047 124.109 98.6623 124.375 98.6683 124.652C98.6744 124.924 98.729 125.189 98.8382 125.442C98.9475 125.689 99.0992 125.911 99.2933 126.103C99.4875 126.288 99.712 126.436 99.9608 126.535C111.666 131.151 118.377 137.538 118.377 144.056C118.377 157.114 92.2061 168.137 61.224 168.137C30.2843 168.137 4.14423 157.108 4.14423 144.056C4.14423 137.538 10.8613 131.145 22.56 126.528C22.8209 126.436 23.0515 126.294 23.2517 126.103C23.458 125.917 23.6158 125.695 23.7311 125.436C23.8464 125.183 23.907 124.918 23.9131 124.64C23.9252 124.356 23.8767 124.085 23.7796 123.825C23.6825 123.566 23.5369 123.332 23.3427 123.128C23.1546 122.93 22.9362 122.776 22.6813 122.665C22.4265 122.554 22.1656 122.498 21.8925 122.498C21.6195 122.498 21.3525 122.554 21.1037 122.659C7.54826 128.01 0.0909424 135.607 0.0909424 144.056C0.0909424 159.885 26.9409 172.284 61.224 172.284C95.5434 172.284 122.436 159.885 122.436 144.056Z" fill="black"/>
</g>
<mask id="mask5_37_64" style="mask-type:alpha" maskUnits="userSpaceOnUse" x="15" y="0" width="94" height="141">
<path d="M15.0422 0H108.244V140.556H15.0422V0Z" fill="white"/>
</mask>
<g mask="url(#mask5_37_64)">
<path d="M61.2364 0.84552C59.7376 0.84552 58.2389 0.92575 56.7402 1.07387C55.2475 1.22815 53.7669 1.4565 52.2925 1.7589C50.8241 2.06131 49.3678 2.4316 47.9297 2.88212C46.4917 3.32647 45.0839 3.84488 43.6944 4.43734C42.3109 5.02364 40.9578 5.67782 39.629 6.40606C38.3062 7.12812 37.0198 7.91808 35.7759 8.76975C34.526 9.62759 33.3245 10.541 32.1656 11.5161C31.0006 12.4912 29.8902 13.5156 28.8344 14.6018C27.7725 15.688 26.7652 16.8236 25.8126 18.0147C24.86 19.1996 23.968 20.4277 23.1306 21.7052C22.2994 22.9828 21.5287 24.2973 20.8188 25.6488C20.1149 27.0004 19.4718 28.389 18.8953 29.8085C18.3249 31.2217 17.8153 32.6659 17.3844 34.1347C16.9476 35.6035 16.5835 37.0908 16.2862 38.5967C15.9949 40.0964 15.7765 41.6146 15.6248 43.1389C15.4791 44.6695 15.4063 46.2 15.4003 47.7305C15.4003 65.8995 38.3365 104.194 52.0073 125.405C54.2888 128.948 56.3336 132.04 58.0265 134.582C58.5787 135.403 59.1005 136.181 59.5677 136.86C60.2049 137.81 60.7692 138.631 61.2364 139.316C63.1174 136.576 66.4486 131.645 70.4655 125.399C93.7658 89.3821 107.121 61.0734 107.121 47.7244C107.121 46.1877 107.042 44.6571 106.897 43.1266C106.745 41.6022 106.526 40.084 106.229 38.5782C105.938 37.0723 105.568 35.585 105.131 34.1223C104.694 32.6535 104.19 31.2094 103.614 29.7899C103.037 28.3705 102.394 26.9881 101.684 25.6365C100.974 24.2788 100.204 22.9642 99.3664 21.6867C98.5351 20.4154 97.6371 19.1811 96.6845 17.9962C95.7318 16.8112 94.7246 15.6757 93.6627 14.5895C92.6008 13.5033 91.4904 12.4727 90.3254 11.4976C89.1665 10.5286 87.965 9.61525 86.7151 8.75741C85.4651 7.90574 84.1787 7.11578 82.8559 6.39371C81.5271 5.67165 80.174 5.01129 78.7845 4.425C77.3949 3.83871 75.9872 3.3203 74.5491 2.87595C73.1111 2.42543 71.6548 2.05514 70.1803 1.75273C68.7119 1.45033 67.2253 1.22815 65.7326 1.07387C64.2339 0.919579 62.7412 0.84552 61.2364 0.84552ZM61.2546 73.8114C60.4172 73.8114 59.586 73.7743 58.7547 73.6879C57.9234 73.6015 57.0921 73.4781 56.2729 73.3115C55.4538 73.1448 54.6407 72.935 53.8398 72.6882C53.0449 72.4413 52.2561 72.1512 51.4854 71.8241C50.7088 71.4971 49.9564 71.1329 49.2161 70.7318C48.4819 70.3306 47.7598 69.8925 47.0681 69.4173C46.3703 68.942 45.7028 68.4298 45.0536 67.8867C44.4043 67.3498 43.7854 66.7758 43.1968 66.171C42.6022 65.5662 42.044 64.9306 41.5161 64.2702C40.9821 63.6099 40.4845 62.9248 40.0173 62.2151C39.5562 61.5054 39.1253 60.771 38.7309 60.018C38.3365 59.2651 37.9785 58.4937 37.663 57.7037C37.3414 56.9138 37.0562 56.1115 36.8135 55.2906C36.5708 54.4698 36.3706 53.6429 36.2067 52.8035C36.0429 51.9704 35.9216 51.1249 35.8366 50.2732C35.7577 49.4215 35.7152 48.5699 35.7152 47.712C35.7152 46.8604 35.7577 46.0087 35.8366 45.157C35.9216 44.3053 36.0429 43.4599 36.2067 42.6205C36.3706 41.7812 36.5708 40.9542 36.8135 40.1396C37.0562 39.3188 37.3414 38.5165 37.6569 37.7265C37.9785 36.9366 38.3365 36.1651 38.7309 35.4122C39.1253 34.6593 39.5562 33.9249 40.0173 33.2151C40.4845 32.5054 40.9821 31.8204 41.5161 31.16C42.044 30.4935 42.6022 29.864 43.1968 29.2592C43.7854 28.6544 44.4043 28.0804 45.0536 27.5373C45.7028 26.9942 46.3703 26.4882 47.0681 26.013C47.7598 25.5378 48.4758 25.0996 49.2161 24.6984C49.9564 24.2911 50.7088 23.927 51.4794 23.5999C52.2561 23.2728 53.0388 22.9889 53.8398 22.7359C54.6407 22.489 55.4538 22.2854 56.2729 22.1187C57.0921 21.9521 57.9234 21.8225 58.7547 21.7423C59.586 21.6559 60.4172 21.6127 61.2546 21.6127C62.092 21.6127 62.9293 21.6559 63.7606 21.7423C64.5919 21.8225 65.4171 21.9521 66.2363 22.1187C67.0615 22.2854 67.8685 22.489 68.6694 22.7359C69.4704 22.9889 70.2592 23.2728 71.0298 23.5999C71.8004 23.927 72.5589 24.2911 73.2931 24.6984C74.0334 25.0996 74.7494 25.5378 75.4472 26.013C76.1389 26.4882 76.8124 26.9942 77.4617 27.5373C78.1049 28.0804 78.7238 28.6544 79.3184 29.2592C79.907 29.864 80.4713 30.4997 80.9992 31.16C81.5332 31.8204 82.0307 32.5054 82.4919 33.2151C82.9591 33.9249 83.3839 34.6593 83.7783 35.4122C84.1727 36.1651 84.5307 36.9366 84.8522 37.7265C85.1738 38.5165 85.453 39.3188 85.6957 40.1396C85.9384 40.9604 86.1447 41.7874 86.3085 42.6267C86.4724 43.4599 86.5937 44.3053 86.6726 45.157C86.7575 46.0087 86.8 46.8604 86.8 47.7182C86.7939 48.5699 86.7575 49.4215 86.6726 50.2732C86.5876 51.1249 86.4663 51.9704 86.3025 52.8035C86.1386 53.6429 85.9384 54.4698 85.6957 55.2906C85.453 56.1053 85.1678 56.9138 84.8462 57.7037C84.5307 58.4875 84.1727 59.2589 83.7783 60.018C83.3839 60.771 82.953 61.4992 82.4919 62.2089C82.0247 62.9248 81.5271 63.6099 80.9992 64.2702C80.4652 64.9306 79.907 65.5601 79.3124 66.1649C78.7238 66.7697 78.1049 67.3436 77.4556 67.8867C76.8124 68.4298 76.1389 68.9359 75.4472 69.4111C74.7494 69.8863 74.0334 70.3245 73.2992 70.7318C72.5589 71.1329 71.8065 71.4971 71.0298 71.8241C70.2592 72.1512 69.4765 72.4413 68.6755 72.6882C67.8746 72.9412 67.0615 73.1448 66.2423 73.3115C65.4232 73.4781 64.5979 73.6077 63.7667 73.6941C62.9354 73.7743 62.098 73.8175 61.2607 73.8175L61.2546 73.8114Z" fill="black"/>
</g>
<path d="M61.2362 157.855C84.8763 157.855 101.35 149.974 101.35 142.926C101.35 136.693 89.3179 130.682 73.1715 128.75L72.7104 129.466L72.6679 129.528C72.316 130.083 71.964 130.62 71.6182 131.139L71.5272 131.281C71.2177 131.762 70.9143 132.225 70.6109 132.681L70.3925 133.015C70.1376 133.397 69.8889 133.774 69.6461 134.144L69.3549 134.582L68.6874 135.588L68.4144 136.002L67.753 136.977L67.5528 137.292L66.9096 138.242L66.7336 138.514L66.1086 139.433L65.9933 139.606C64.0698 142.451 62.9048 144.105 62.8866 144.136C62.6925 144.407 62.4558 144.617 62.1646 144.771C61.8733 144.926 61.5638 145 61.2362 145C60.9085 145 60.5991 144.926 60.3078 144.771C60.0226 144.617 59.7799 144.407 59.5857 144.136C59.5675 144.105 58.6756 142.84 57.1708 140.612L57.0555 140.445L56.5215 139.661L56.2545 139.266L55.8116 138.606L55.405 138.014L55.0167 137.434L54.5191 136.693L54.1854 136.187L53.5786 135.267L53.2874 134.829C53.0689 134.508 52.8505 134.175 52.626 133.829L52.3044 133.348C52.0738 132.996 51.8432 132.644 51.6066 132.28L51.2789 131.787L50.5751 130.707L50.1685 130.083C49.9501 129.75 49.7316 129.404 49.5071 129.059L49.3008 128.75C33.1848 130.688 21.1705 136.693 21.1705 142.926C21.1705 149.986 37.6264 157.855 61.2362 157.855Z" fill="black"/>
<mask id="mask6_37_64" style="mask-type:alpha" maskUnits="userSpaceOnUse" x="0" y="121" width="123" height="52">
<path d="M0 121.597H122.327V172.667H0V121.597Z" fill="white"/>
</mask>
<g mask="url(#mask6_37_64)">
<path d="M122.436 144.056C122.436 135.613 114.973 128.016 101.423 122.665C101.174 122.566 100.913 122.523 100.646 122.529C100.379 122.535 100.119 122.597 99.8758 122.708C99.627 122.819 99.4147 122.974 99.2266 123.171C99.0445 123.369 98.8989 123.597 98.8018 123.856C98.7047 124.109 98.6623 124.375 98.6683 124.652C98.6744 124.924 98.729 125.189 98.8382 125.442C98.9475 125.689 99.0992 125.911 99.2933 126.103C99.4875 126.288 99.712 126.436 99.9608 126.535C111.666 131.151 118.377 137.538 118.377 144.056C118.377 157.114 92.2061 168.137 61.224 168.137C30.2843 168.137 4.14423 157.108 4.14423 144.056C4.14423 137.538 10.8613 131.145 22.56 126.528C22.8209 126.436 23.0515 126.294 23.2517 126.103C23.458 125.917 23.6158 125.695 23.7311 125.436C23.8464 125.183 23.907 124.918 23.9131 124.634C23.9252 124.356 23.8767 124.085 23.7796 123.825C23.6825 123.566 23.5369 123.332 23.3427 123.128C23.1546 122.93 22.9362 122.776 22.6813 122.665C22.4265 122.554 22.1656 122.498 21.8925 122.498C21.6195 122.498 21.3525 122.554 21.1037 122.659C7.54826 128.01 0.0909424 135.607 0.0909424 144.056C0.0909424 159.885 26.9409 172.284 61.224 172.284C95.5434 172.284 122.436 159.885 122.436 144.056Z" fill="#005792"/>
</g>
<mask id="mask7_37_64" style="mask-type:alpha" maskUnits="userSpaceOnUse" x="15" y="113" width="94" height="28">
<path d="M15.0422 113.42H108.244V140.556H15.0422V113.42Z" fill="white"/>
</mask>
<g mask="url(#mask7_37_64)">
<path d="M61.2364 0.845535C59.7376 0.845535 58.2389 0.925765 56.7402 1.07388C55.2475 1.22817 53.7669 1.45651 52.2925 1.75892C50.8241 2.06132 49.3678 2.43162 47.9297 2.88214C46.4917 3.32649 45.0839 3.84489 43.6944 4.43736C42.3109 5.02365 40.9578 5.67783 39.629 6.40607C38.3062 7.12814 37.0198 7.91809 35.7759 8.76976C34.526 9.6276 33.3245 10.541 32.1656 11.5161C31.0006 12.4912 29.8902 13.5157 28.8344 14.6018C27.7725 15.688 26.7652 16.8236 25.8126 18.0147C24.86 19.1996 23.968 20.4278 23.1306 21.7053C22.2994 22.9828 21.5287 24.2973 20.8188 25.6489C20.1149 27.0004 19.4718 28.389 18.8953 29.8085C18.3249 31.2217 17.8153 32.6659 17.3844 34.1347C16.9476 35.6035 16.5835 37.0909 16.2862 38.5905C15.9949 40.0964 15.7765 41.6146 15.6248 43.1389C15.4791 44.6695 15.4063 46.2 15.4003 47.7306C15.4003 65.8995 38.3365 104.194 52.0073 125.405C54.2888 128.948 56.3336 132.04 58.0265 134.582C58.5787 135.403 59.1005 136.181 59.5677 136.86C60.2049 137.81 60.7692 138.631 61.2364 139.316C63.1174 136.576 66.4486 131.645 70.4655 125.399C93.7658 89.3821 107.121 61.0734 107.121 47.7244C107.121 46.1877 107.042 44.6571 106.897 43.1266C106.745 41.6022 106.526 40.084 106.229 38.5782C105.938 37.0723 105.568 35.585 105.131 34.1224C104.694 32.6535 104.19 31.2094 103.614 29.79C103.037 28.3705 102.394 26.9881 101.684 25.6365C100.974 24.2788 100.204 22.9643 99.3664 21.6868C98.5351 20.4154 97.6371 19.1811 96.6845 17.9962C95.7318 16.8113 94.7246 15.6757 93.6627 14.5895C92.6008 13.5033 91.4904 12.4727 90.3254 11.4976C89.1665 10.5286 87.965 9.61526 86.7151 8.75742C85.4651 7.90575 84.1787 7.1158 82.8559 6.39373C81.5271 5.67166 80.174 5.01131 78.7845 4.42502C77.3949 3.83872 75.9872 3.32031 74.5491 2.87596C73.1111 2.42544 71.6548 2.05515 70.1803 1.75275C68.7119 1.45034 67.2253 1.22817 65.7326 1.07388C64.2339 0.919594 62.7412 0.845535 61.2364 0.845535ZM61.2546 73.8114C60.4172 73.8114 59.586 73.7744 58.7547 73.688C57.9234 73.6016 57.0921 73.4781 56.2729 73.3115C55.4538 73.1449 54.6407 72.935 53.8398 72.6882C53.0449 72.4413 52.2561 72.1512 51.4854 71.8242C50.7088 71.4971 49.9564 71.1329 49.2161 70.7318C48.4819 70.3307 47.7598 69.8925 47.0681 69.4173C46.3703 68.9421 45.7028 68.4298 45.0536 67.8867C44.4043 67.3498 43.7854 66.7759 43.1968 66.1711C42.6022 65.5662 42.044 64.9306 41.5161 64.2702C40.9821 63.6099 40.4845 62.9248 40.0173 62.2151C39.5562 61.5054 39.1253 60.771 38.7309 60.018C38.3365 59.2651 37.9785 58.4937 37.663 57.7037C37.3414 56.9138 37.0562 56.1115 36.8135 55.2907C36.5708 54.4699 36.3706 53.6429 36.2067 52.8035C36.0429 51.9704 35.9216 51.1249 35.8366 50.2732C35.7577 49.4216 35.7152 48.5699 35.7152 47.712C35.7152 46.8604 35.7577 46.0087 35.8366 45.157C35.9216 44.3054 36.0429 43.4599 36.2067 42.6205C36.3706 41.7812 36.5708 40.9542 36.8135 40.1396C37.0562 39.3188 37.3414 38.5165 37.6569 37.7265C37.9785 36.9366 38.3365 36.1651 38.7309 35.4122C39.1253 34.6593 39.5562 33.9249 40.0173 33.2151C40.4845 32.5054 40.9821 31.8204 41.5161 31.16C42.044 30.4935 42.6022 29.864 43.1968 29.2592C43.7854 28.6544 44.4043 28.0804 45.0536 27.5373C45.7028 26.9943 46.3703 26.4882 47.0681 26.013C47.7598 25.5378 48.4758 25.0996 49.2161 24.6985C49.9564 24.2911 50.7088 23.927 51.4794 23.5999C52.2561 23.2728 53.0388 22.9889 53.8398 22.7359C54.6407 22.489 55.4538 22.2854 56.2729 22.1188C57.0921 21.9521 57.9234 21.8225 58.7547 21.7423C59.586 21.6559 60.4172 21.6127 61.2546 21.6127C62.092 21.6127 62.9293 21.6559 63.7606 21.7423C64.5919 21.8225 65.4171 21.9521 66.2363 22.1188C67.0615 22.2854 67.8685 22.489 68.6694 22.7359C69.4704 22.9889 70.2592 23.2728 71.0298 23.5999C71.8004 23.927 72.5589 24.2911 73.2931 24.6985C74.0334 25.0996 74.7494 25.5378 75.4472 26.013C76.1389 26.4882 76.8124 26.9943 77.4617 27.5373C78.1049 28.0804 78.7238 28.6544 79.3184 29.2592C79.907 29.864 80.4713 30.4997 80.9992 31.16C81.5332 31.8204 82.0307 32.5054 82.4919 33.2151C82.9591 33.9249 83.3839 34.6593 83.7783 35.4122C84.1727 36.1651 84.5307 36.9366 84.8522 37.7265C85.1738 38.5165 85.453 39.3188 85.6957 40.1396C85.9384 40.9604 86.1447 41.7874 86.3085 42.6267C86.4724 43.4599 86.5937 44.3054 86.6726 45.157C86.7575 46.0087 86.8 46.8604 86.8 47.7182C86.7939 48.5699 86.7575 49.4216 86.6726 50.2732C86.5876 51.1249 86.4663 51.9704 86.3025 52.8035C86.1386 53.6429 85.9384 54.4699 85.6957 55.2907C85.453 56.1053 85.1678 56.9138 84.8462 57.7037C84.5307 58.4875 84.1727 59.2589 83.7783 60.018C83.3839 60.771 82.953 61.4992 82.4919 62.2089C82.0247 62.9248 81.5271 63.6099 80.9992 64.2702C80.4652 64.9306 79.907 65.5601 79.3124 66.1649C78.7238 66.7697 78.1049 67.3436 77.4556 67.8867C76.8124 68.4298 76.1389 68.9359 75.4472 69.4111C74.7494 69.8863 74.0334 70.3245 73.2992 70.7318C72.5589 71.1329 71.8065 71.4971 71.0298 71.8242C70.2592 72.1512 69.4765 72.4413 68.6755 72.6882C67.8746 72.9412 67.0615 73.1449 66.2423 73.3115C65.4232 73.4781 64.5979 73.6077 63.7667 73.6941C62.9354 73.7744 62.098 73.8176 61.2607 73.8176L61.2546 73.8114Z" fill="#005792"/>
</g>
<path d="M61.2362 157.855C84.8763 157.855 101.35 149.974 101.35 142.926C101.35 136.693 89.3179 130.682 73.1715 128.75L72.7104 129.466L72.6679 129.528C72.316 130.083 71.964 130.62 71.6182 131.139L71.5272 131.281C71.2177 131.762 70.9143 132.225 70.6109 132.681L70.3925 133.015C70.1376 133.397 69.8889 133.774 69.6461 134.144L69.3549 134.582L68.6874 135.588L68.4144 136.002L67.753 136.977L67.5528 137.292L66.9096 138.242L66.7336 138.514L66.1086 139.433L65.9933 139.606C64.0698 142.451 62.9048 144.105 62.8866 144.136C62.6925 144.407 62.4558 144.617 62.1646 144.771C61.8733 144.926 61.5638 145 61.2362 145C60.9085 145 60.5991 144.926 60.3078 144.771C60.0226 144.617 59.7799 144.407 59.5857 144.136C59.5675 144.105 58.6756 142.84 57.1708 140.612L57.0555 140.445L56.5215 139.661L56.2545 139.266L55.8116 138.606L55.405 138.014L55.0167 137.434L54.5191 136.693L54.1854 136.187L53.5786 135.267L53.2874 134.829C53.0689 134.508 52.8505 134.175 52.626 133.829L52.3044 133.348C52.0738 132.996 51.8432 132.644 51.6066 132.28L51.2789 131.787L50.5751 130.707L50.1685 130.083C49.9501 129.75 49.7316 129.404 49.5071 129.059L49.3008 128.75C33.1848 130.688 21.1705 136.693 21.1705 142.926C21.1705 149.986 37.6264 157.855 61.2362 157.855Z" fill="#005792"/>
<path d="M147.801 143.363V120.855H132.868V159.871H156.709V143.548C153.936 143.548 143.493 142.943 143.608 151.589C143.669 154.891 145.204 156.872 147.206 158.014L146.97 158.674C141.661 157.952 140.065 154.712 140.065 151.349C139.949 146.368 143.196 143.727 147.801 143.363Z" fill="#005792"/>
<path d="M169.103 159.933H194.485V136.821C194.485 126.317 188.283 120.917 177.956 120.917H162.374L162.319 136.704C162.319 136.704 176.069 138.382 176.245 128.897C176.245 126.675 175.535 125.058 174.412 123.916L174.831 123.318C177.841 124.934 179.788 127.878 179.667 132.92V138.623H170.462C155.353 138.623 154.346 159.933 169.103 159.933ZM179.788 140.363V150.867C181.378 151.17 182.561 152.552 182.561 154.231C182.561 156.088 181.087 157.594 179.254 157.594C175.535 157.594 173.945 151.83 174 149.01C174.06 145.047 176.421 141.684 179.788 140.363Z" fill="#005792"/>
<path d="M212.42 159.933V140.666C212.42 135.142 219.149 135.204 219.149 140.783V159.933H233.548V135.321C233.548 127.699 231.958 120.917 223.282 120.732C215.666 120.553 213.306 127.699 213.191 134.599H212.42V120.917H197.724V159.933H212.42Z" fill="#005792"/>
<path d="M236.972 120.972V159.995H242.639C249.896 159.995 250.897 153.453 251.783 149.01H252.669V159.995H258.634C278.755 159.995 278.639 120.972 258.634 120.972H236.972ZM251.492 144.387L251.547 122.713C262.293 123.435 261.819 144.387 251.492 144.387Z" fill="#005792"/>
</svg>
